<mxfile host="app.diagrams.net" modified="2024-02-20T12:00:00.000Z" agent="Mozilla/5.0" version="21.7.5">
  <diagram id="medconnect-architecture" name="MedConnect Architecture">
    <mxGraphModel dx="1422" dy="762" grid="1" gridSize="10" guides="1" tooltips="1" connect="1" arrows="1" fold="1" page="1" pageScale="1" pageWidth="850" pageHeight="1100">
      <root>
        <mxCell id="0"/>
        <mxCell id="1" parent="0"/>
        
        <!-- Frontend Layer -->
        <mxCell id="2" value="Frontend (React + TypeScript)" style="swimlane;fontStyle=0;childLayout=stackLayout;horizontal=1;startSize=30;horizontalStack=0;resizeParent=1;resizeParentMax=0;resizeLast=0;collapsible=1;marginBottom=0;fillColor=#dae8fc;strokeColor=#6c8ebf;" vertex="1" parent="1">
          <mxGeometry x="120" y="80" width="200" height="150" as="geometry"/>
        </mxCell>
        <mxCell id="3" value="- React 18&#xa;- TypeScript&#xa;- TailwindCSS&#xa;- Socket.io-client&#xa;- WebRTC&#xa;- React Router&#xa;- Axios" style="text;strokeColor=none;fillColor=none;align=left;verticalAlign=middle;spacingLeft=4;spacingRight=4;overflow=hidden;points=[[0,0.5],[1,0.5]];portConstraint=eastwest;rotatable=0;" vertex="1" parent="2">
          <mxGeometry y="30" width="200" height="120" as="geometry"/>
        </mxCell>

        <!-- Backend Layer -->
        <mxCell id="4" value="Backend (Node.js + Express)" style="swimlane;fontStyle=0;childLayout=stackLayout;horizontal=1;startSize=30;horizontalStack=0;resizeParent=1;resizeParentMax=0;resizeLast=0;collapsible=1;marginBottom=0;fillColor=#d5e8d4;strokeColor=#82b366;" vertex="1" parent="1">
          <mxGeometry x="440" y="80" width="200" height="150" as="geometry"/>
        </mxCell>
        <mxCell id="5" value="- Express.js&#xa;- Socket.IO&#xa;- JWT Authentication&#xa;- Bcrypt&#xa;- WebRTC Server&#xa;- REST APIs&#xa;- Middleware" style="text;strokeColor=none;fillColor=none;align=left;verticalAlign=middle;spacingLeft=4;spacingRight=4;overflow=hidden;points=[[0,0.5],[1,0.5]];portConstraint=eastwest;rotatable=0;" vertex="1" parent="4">
          <mxGeometry y="30" width="200" height="120" as="geometry"/>
        </mxCell>

        <!-- Database Layer -->
        <mxCell id="6" value="Database (MongoDB)" style="swimlane;fontStyle=0;childLayout=stackLayout;horizontal=1;startSize=30;horizontalStack=0;resizeParent=1;resizeParentMax=0;resizeLast=0;collapsible=1;marginBottom=0;fillColor=#fff2cc;strokeColor=#d6b656;" vertex="1" parent="1">
          <mxGeometry x="440" y="280" width="200" height="120" as="geometry"/>
        </mxCell>
        <mxCell id="7" value="- User Data&#xa;- Appointments&#xa;- Messages&#xa;- Medical Records&#xa;- Chat History" style="text;strokeColor=none;fillColor=none;align=left;verticalAlign=middle;spacingLeft=4;spacingRight=4;overflow=hidden;points=[[0,0.5],[1,0.5]];portConstraint=eastwest;rotatable=0;" vertex="1" parent="6">
          <mxGeometry y="30" width="200" height="90" as="geometry"/>
        </mxCell>

        <!-- External Services -->
        <mxCell id="8" value="External Services" style="swimlane;fontStyle=0;childLayout=stackLayout;horizontal=1;startSize=30;horizontalStack=0;resizeParent=1;resizeParentMax=0;resizeLast=0;collapsible=1;marginBottom=0;fillColor=#f8cecc;strokeColor=#b85450;" vertex="1" parent="1">
          <mxGeometry x="120" y="280" width="200" height="120" as="geometry"/>
        </mxCell>
        <mxCell id="9" value="- Cloudinary (Media Storage)&#xa;- WebRTC (Video Calls)&#xa;- Socket.IO (Real-time)&#xa;- Authentication Service" style="text;strokeColor=none;fillColor=none;align=left;verticalAlign=middle;spacingLeft=4;spacingRight=4;overflow=hidden;points=[[0,0.5],[1,0.5]];portConstraint=eastwest;rotatable=0;" vertex="1" parent="8">
          <mxGeometry y="30" width="200" height="90" as="geometry"/>
        </mxCell>

        <!-- Connections -->
        <mxCell id="10" value="" style="endArrow=classic;startArrow=classic;html=1;rounded=0;exitX=1;exitY=0.5;exitDx=0;exitDy=0;entryX=0;entryY=0.5;entryDx=0;entryDy=0;" edge="1" parent="1" source="3" target="5">
          <mxGeometry width="50" height="50" relative="1" as="geometry"/>
        </mxCell>
        <mxCell id="11" value="" style="endArrow=classic;startArrow=classic;html=1;rounded=0;exitX=0.5;exitY=1;exitDx=0;exitDy=0;entryX=0.5;entryY=0;entryDx=0;entryDy=0;" edge="1" parent="1" source="4" target="6">
          <mxGeometry width="50" height="50" relative="1" as="geometry"/>
        </mxCell>
        <mxCell id="12" value="" style="endArrow=classic;startArrow=classic;html=1;rounded=0;exitX=0.5;exitY=1;exitDx=0;exitDy=0;entryX=0.5;entryY=0;entryDx=0;entryDy=0;" edge="1" parent="1" source="2" target="8">
          <mxGeometry width="50" height="50" relative="1" as="geometry"/>
        </mxCell>

        <!-- Labels -->
        <mxCell id="13" value="HTTP/WebSocket" style="text;html=1;strokeColor=none;fillColor=none;align=center;verticalAlign=middle;whiteSpace=wrap;rounded=0;" vertex="1" parent="1">
          <mxGeometry x="340" y="130" width="100" height="20" as="geometry"/>
        </mxCell>
        <mxCell id="14" value="Mongoose ODM" style="text;html=1;strokeColor=none;fillColor=none;align=center;verticalAlign=middle;whiteSpace=wrap;rounded=0;" vertex="1" parent="1">
          <mxGeometry x="540" y="240" width="100" height="20" as="geometry"/>
        </mxCell>
        <mxCell id="15" value="API Calls" style="text;html=1;strokeColor=none;fillColor=none;align=center;verticalAlign=middle;whiteSpace=wrap;rounded=0;" vertex="1" parent="1">
          <mxGeometry x="170" y="240" width="100" height="20" as="geometry"/>
        </mxCell>
      </root>
    </mxGraphModel>
  </diagram>
</mxfile>